<?xml version="1.0" standalone="no"?>
<!DOCTYPE svg PUBLIC "-//W3C//DTD SVG 20010904//EN"
 "http://www.w3.org/TR/2001/REC-SVG-20010904/DTD/svg10.dtd">
<svg version="1.0" xmlns="http://www.w3.org/2000/svg"
 width="108.000000pt" height="108.000000pt" viewBox="0 0 108.000000 108.000000"
 preserveAspectRatio="xMidYMid meet">
<metadata>
Created by potrace 1.11, written by Peter Selinger 2001-2013
</metadata>
<g transform="translate(0.000000,108.000000) scale(0.100000,-0.100000)"
fill="#000000" stroke="none">
<path d="M90 630 l0 -410 -45 -11 -45 -11 0 -79 c0 -77 1 -79 23 -74 230 55
696 58 966 6 l91 -18 0 77 0 77 -60 16 -60 17 0 410 0 410 -105 0 -105 0 -2
-346 -3 -347 -169 279 c-94 154 -189 309 -213 347 l-43 67 -115 0 -115 0 0
-410z m449 -354 c-2 -2 -57 -6 -121 -9 l-118 -6 0 207 0 206 121 -197 c67
-109 120 -199 118 -201z"/>
</g>
</svg>
